<?xml version="1.0" encoding="UTF-8" standalone="no"?>
<svg
   xmlns:dc="http://purl.org/dc/elements/1.1/"
   xmlns:cc="http://creativecommons.org/ns#"
   xmlns:rdf="http://www.w3.org/1999/02/22-rdf-syntax-ns#"
   xmlns:svg="http://www.w3.org/2000/svg"
   xmlns="http://www.w3.org/2000/svg"
   xmlns:sodipodi="http://sodipodi.sourceforge.net/DTD/sodipodi-0.dtd"
   xmlns:inkscape="http://www.inkscape.org/namespaces/inkscape"
   width="936pt"
   height="1068pt"
   viewBox="0 0 936 1068"
   version="1.1"
   id="svg2"
   inkscape:version="0.91 r13725"
   sodipodi:docname="Birkdale_Logo_2014_AnySize.svg">
  <metadata
     id="metadata70">
    <rdf:RDF>
      <cc:Work
         rdf:about="">
        <dc:format>image/svg+xml</dc:format>
        <dc:type
           rdf:resource="http://purl.org/dc/dcmitype/StillImage" />
      </cc:Work>
    </rdf:RDF>
  </metadata>
  <defs
     id="defs68" />
  <sodipodi:namedview
     pagecolor="#ffffff"
     bordercolor="#666666"
     borderopacity="1"
     objecttolerance="10"
     gridtolerance="10"
     guidetolerance="10"
     inkscape:pageopacity="0"
     inkscape:pageshadow="2"
     inkscape:window-width="1920"
     inkscape:window-height="1018"
     id="namedview66"
     showgrid="false"
     inkscape:zoom="0.35355339"
     inkscape:cx="1549.1832"
     inkscape:cy="428.57902"
     inkscape:window-x="-8"
     inkscape:window-y="-8"
     inkscape:window-maximized="1"
     inkscape:current-layer="g3397" />
  <g
     id="g3397">
    <path
       style="fill:#030368;fill-opacity:1"
       id="path4"
       d=" M 0.00 0.00 L 936.00 0.00 L 936.00 519.22 C 933.99 530.43 932.74 541.76 931.17 553.04 C 928.19 567.59 924.62 582.04 920.25 596.24 C 916.80 606.47 913.70 616.82 910.22 627.04 C 905.67 639.96 899.97 652.42 894.95 665.15 C 886.82 684.47 877.02 703.02 867.66 721.76 C 847.72 760.25 824.79 797.20 798.93 832.00 C 777.14 861.50 753.71 889.84 727.96 915.96 C 716.57 928.24 703.89 939.21 691.93 950.90 C 683.89 958.29 675.42 965.18 666.78 971.84 C 657.56 978.98 648.69 986.57 639.03 993.13 C 626.28 1001.79 613.34 1010.20 600.11 1018.10 C 590.20 1023.00 580.85 1028.97 570.82 1033.64 C 548.90 1043.97 526.52 1053.59 503.11 1060.03 C 492.56 1062.74 482.05 1065.65 471.41 1068.00 L 464.63 1068.00 C 443.39 1062.68 421.99 1057.62 401.66 1049.36 C 388.24 1043.90 374.94 1038.15 361.92 1031.82 C 354.92 1028.46 348.44 1024.14 341.47 1020.72 C 333.34 1016.78 325.91 1011.60 318.28 1006.79 C 306.37 999.13 294.39 991.51 283.36 982.61 C 269.71 971.64 255.48 961.32 242.87 949.14 C 238.68 945.32 234.57 941.43 230.48 937.52 C 224.24 931.09 217.14 925.53 211.22 918.78 C 205.89 912.46 199.59 907.07 194.16 900.85 C 168.90 873.50 145.89 844.11 124.43 813.70 C 99.19 778.04 77.72 739.87 58.10 700.88 C 49.62 683.62 41.75 666.07 34.65 648.20 C 26.89 630.83 21.68 612.51 15.76 594.48 C 7.64 567.73 1.89 540.19 0.00 512.26 L 0.00 0.00 Z"
       fill="#030368" />
    <g
       id="g3388">
      <g
         id="g3369">
        <path
           id="path48"
           d=" M 931.17 553.04 C 932.74 541.76 933.99 530.43 936.00 519.22 L 936.00 530.14 C 933.85 537.66 933.49 545.55 931.17 553.04 Z"
           fill="#8484b5" />
        <path
           transform="scale(0.8,0.8)"
           inkscape:connector-curvature="0"
           id="path3361"
           d="m 1164.0002,690.99707 c 0.01,-0.0147 0.023,-0.0815 0.032,-0.14844 0.047,-0.38142 0.049,-0.3974 0.096,-0.70761 0.01,-0.0559 0.023,-0.16484 0.031,-0.24218 0.01,-0.0773 0.023,-0.18984 0.032,-0.25 0.024,-0.16426 0.051,-0.34984 0.065,-0.43749 0.01,-0.043 0.019,-0.14141 0.028,-0.21875 0.01,-0.0773 0.023,-0.18632 0.032,-0.24218 l 0.031,-0.20312 c 0.01,-0.0559 0.023,-0.16485 0.032,-0.24219 0.01,-0.0773 0.023,-0.18281 0.031,-0.23437 0.01,-0.0516 0.021,-0.15703 0.03,-0.23437 0.01,-0.0774 0.022,-0.17578 0.028,-0.21875 0.015,-0.0966 0.04,-0.27884 0.067,-0.48437 0.011,-0.0859 0.026,-0.1914 0.033,-0.23437 0.01,-0.043 0.02,-0.14141 0.029,-0.21875 0.01,-0.0773 0.023,-0.18281 0.03,-0.23437 0.01,-0.0516 0.022,-0.15703 0.032,-0.23437 0.01,-0.0773 0.024,-0.18281 0.032,-0.23437 0.01,-0.0516 0.022,-0.15703 0.031,-0.23438 0.01,-0.0773 0.024,-0.18281 0.031,-0.23437 0.01,-0.0516 0.021,-0.15 0.029,-0.21874 0.01,-0.0688 0.022,-0.17422 0.03,-0.23438 0.024,-0.17095 0.055,-0.41416 0.065,-0.49999 0,-0.043 0.018,-0.1414 0.03,-0.21875 0.011,-0.0773 0.026,-0.18984 0.034,-0.24999 0.01,-0.0602 0.021,-0.16563 0.031,-0.23438 0.01,-0.0687 0.024,-0.17421 0.031,-0.23437 0.01,-0.0602 0.02,-0.15859 0.028,-0.21874 0.026,-0.1813 0.052,-0.38421 0.065,-0.5 0.01,-0.0601 0.021,-0.17265 0.033,-0.24999 0.011,-0.0774 0.025,-0.17578 0.03,-0.21875 0.01,-0.0869 0.042,-0.33226 0.065,-0.5 0.01,-0.0602 0.021,-0.15859 0.028,-0.21874 0.01,-0.0602 0.021,-0.16563 0.031,-0.23437 0.01,-0.0688 0.025,-0.17422 0.032,-0.23438 0.01,-0.0602 0.02,-0.15859 0.028,-0.21874 0.01,-0.0602 0.024,-0.17969 0.036,-0.26562 0.011,-0.0859 0.025,-0.18438 0.03,-0.21875 0.012,-0.0779 0.051,-0.37979 0.063,-0.48437 0.01,-0.0843 0.041,-0.32388 0.065,-0.49999 0.01,-0.0602 0.021,-0.1586 0.028,-0.21875 0.01,-0.0602 0.02,-0.15859 0.029,-0.21875 0.024,-0.16613 0.051,-0.37817 0.065,-0.49999 0.01,-0.0602 0.02,-0.15859 0.028,-0.21875 0.022,-0.16069 0.055,-0.41052 0.065,-0.49999 0.01,-0.0895 0.043,-0.3393 0.065,-0.5 0.01,-0.0602 0.021,-0.15859 0.028,-0.21874 0.01,-0.0602 0.022,-0.16563 0.032,-0.23437 0.01,-0.0687 0.024,-0.17422 0.032,-0.23438 0.01,-0.0602 0.021,-0.17265 0.03,-0.24999 0.01,-0.0773 0.023,-0.18281 0.031,-0.23438 0.01,-0.0516 0.022,-0.15702 0.032,-0.23437 0.01,-0.0773 0.023,-0.17578 0.03,-0.21874 0.015,-0.0991 0.053,-0.39755 0.065,-0.5 0.01,-0.0804 0.039,-0.31281 0.064,-0.49218 l 0.028,-0.20312 c 0.023,-0.16302 0.054,-0.40765 0.064,-0.49218 0.01,-0.0845 0.042,-0.32916 0.064,-0.49218 l 0.028,-0.20313 c 0.019,-0.13651 0.052,-0.39257 0.066,-0.5078 0.01,-0.0516 0.019,-0.14297 0.028,-0.20312 0.01,-0.0602 0.024,-0.17266 0.033,-0.25 0.01,-0.0773 0.023,-0.18281 0.03,-0.23437 0.01,-0.0516 0.022,-0.15703 0.031,-0.23437 0.01,-0.0774 0.024,-0.18281 0.031,-0.23438 0.01,-0.0516 0.022,-0.15702 0.032,-0.23437 0.01,-0.0773 0.023,-0.17578 0.03,-0.21874 0.01,-0.043 0.021,-0.14844 0.032,-0.23438 0.011,-0.0859 0.026,-0.20195 0.034,-0.25781 l 0.028,-0.20312 c 0.01,-0.0559 0.023,-0.17187 0.034,-0.25781 0.011,-0.0859 0.026,-0.1914 0.033,-0.23437 0.01,-0.043 0.02,-0.1414 0.029,-0.21875 0.01,-0.0773 0.023,-0.17578 0.029,-0.21874 0.01,-0.043 0.021,-0.14844 0.032,-0.23438 0.023,-0.18033 0.049,-0.37219 0.066,-0.48436 0.01,-0.043 0.019,-0.14141 0.028,-0.21875 0.01,-0.0773 0.023,-0.18633 0.032,-0.24219 l 0.031,-0.20312 c 0.01,-0.0559 0.023,-0.16484 0.032,-0.24218 0.01,-0.0773 0.021,-0.17578 0.028,-0.21875 0.013,-0.0877 0.041,-0.27323 0.065,-0.43749 0.01,-0.0602 0.023,-0.17266 0.032,-0.25 0.01,-0.0773 0.023,-0.18633 0.031,-0.24218 0.028,-0.18161 0.046,-0.30261 0.062,-0.41406 0.01,-0.0602 0.023,-0.15859 0.032,-0.21875 0.01,-0.0601 0.023,-0.17265 0.032,-0.25 0.01,-0.0773 0.023,-0.18984 0.032,-0.24999 0.027,-0.18831 0.053,-0.35694 0.063,-0.42187 0.01,-0.0344 0.018,-0.11875 0.028,-0.1875 0.01,-0.0688 0.026,-0.18125 0.035,-0.25 0.01,-0.0687 0.024,-0.16718 0.031,-0.21874 0.01,-0.0516 0.021,-0.14297 0.029,-0.20312 0.01,-0.0602 0.023,-0.1586 0.031,-0.21875 0.01,-0.0602 0.023,-0.15859 0.031,-0.21875 0.01,-0.0602 0.023,-0.15859 0.031,-0.21875 0.01,-0.0602 0.023,-0.15859 0.031,-0.21874 0.01,-0.0602 0.023,-0.1586 0.031,-0.21875 0.01,-0.0602 0.023,-0.15859 0.031,-0.21875 0.01,-0.0602 0.023,-0.15859 0.031,-0.21874 0.01,-0.0602 0.023,-0.1586 0.031,-0.21875 0.01,-0.0602 0.023,-0.15859 0.031,-0.21875 0.01,-0.0601 0.023,-0.16211 0.032,-0.22656 l 0.032,-0.23437 c 0.015,-0.11372 0.04,-0.2705 0.062,-0.39843 0.01,-0.0344 0.019,-0.12578 0.03,-0.20312 0.01,-0.0774 0.026,-0.18985 0.034,-0.25 0.015,-0.10725 0.04,-0.26661 0.061,-0.39062 0.01,-0.0344 0.019,-0.12578 0.03,-0.20312 0.01,-0.0774 0.026,-0.18985 0.034,-0.25 0.015,-0.10725 0.04,-0.26661 0.061,-0.39062 0.01,-0.0344 0.019,-0.11875 0.028,-0.1875 0.01,-0.0688 0.024,-0.16718 0.032,-0.21875 0.01,-0.0516 0.022,-0.14296 0.031,-0.20312 0.024,-0.1612 0.053,-0.35072 0.064,-0.42187 0.01,-0.0344 0.019,-0.12578 0.029,-0.20312 0.01,-0.0773 0.025,-0.17578 0.033,-0.21875 0.01,-0.043 0.023,-0.13437 0.034,-0.20312 0.01,-0.0688 0.024,-0.15312 0.029,-0.1875 0.01,-0.0344 0.02,-0.12578 0.032,-0.20312 0.012,-0.0773 0.026,-0.16875 0.031,-0.20312 0.01,-0.0344 0.018,-0.12368 0.028,-0.19845 0.01,-0.0748 0.025,-0.17435 0.033,-0.22128 0.01,-0.0469 0.021,-0.13341 0.029,-0.19217 0.01,-0.0588 0.022,-0.15017 0.031,-0.20312 0.01,-0.053 0.025,-0.15139 0.035,-0.21875 0.01,-0.0674 0.023,-0.15059 0.029,-0.18496 0.01,-0.0344 0.02,-0.11761 0.03,-0.18497 0.01,-0.0674 0.025,-0.1599 0.033,-0.20565 0.01,-0.0458 0.023,-0.1383 0.032,-0.20566 0.01,-0.0674 0.023,-0.15059 0.029,-0.18496 0.01,-0.0344 0.02,-0.11761 0.03,-0.18497 0.01,-0.0674 0.025,-0.1599 0.033,-0.20565 0.01,-0.0458 0.023,-0.1383 0.032,-0.20566 0.01,-0.0674 0.023,-0.15059 0.029,-0.18496 0.01,-0.0344 0.02,-0.11761 0.03,-0.18497 0.01,-0.0674 0.025,-0.16228 0.034,-0.21093 l 0.03,-0.17694 c 0.01,-0.0487 0.023,-0.14358 0.033,-0.21094 0.01,-0.0674 0.024,-0.16111 0.032,-0.20835 0.01,-0.0472 0.022,-0.13161 0.031,-0.1875 0.01,-0.0559 0.022,-0.12973 0.029,-0.16411 0.01,-0.0344 0.021,-0.11874 0.032,-0.18749 0.011,-0.0688 0.025,-0.15313 0.031,-0.1875 0.01,-0.0344 0.02,-0.11875 0.031,-0.1875 0.026,-0.16424 0.044,-0.27587 0.064,-0.39052 0.01,-0.0516 0.023,-0.13947 0.032,-0.19536 0.01,-0.0559 0.022,-0.12973 0.028,-0.16411 0.038,-0.21753 0.055,-0.31246 0.066,-0.36989 0.01,-0.0358 0.02,-0.11545 0.029,-0.17698 0.01,-0.0615 0.024,-0.14647 0.033,-0.18875 0.01,-0.0423 0.024,-0.12609 0.033,-0.18624 0.029,-0.18668 0.07,-0.42657 0.092,-0.53124 0.01,-0.0258 0.011,-0.0645 0.012,-0.0859 0,-0.0251 0.053,-0.0391 0.143,-0.0391 l 0.1406,0 0,6.00017 0,6.00018 -0.1435,0.50755 c -0.236,0.83424 -0.6793,2.62321 -0.935,3.77313 -0.5335,2.39896 -0.9304,4.53025 -1.7808,9.56238 -0.994,5.88176 -1.4925,8.41974 -2.2342,11.37485 -0.3688,1.46934 -0.8367,3.12495 -0.8831,3.12495 -0.015,0 -0.02,-0.012 -0.011,-0.0267 z"
           style="fill:#030368;fill-opacity:1" />
        <path
           transform="scale(0.8,0.8)"
           inkscape:connector-curvature="0"
           id="path3363"
           d="m 1169.7336,650.64154 c -0,-0.0215 -0,-0.05 3e-4,-0.0634 0,-0.0134 0.01,-0.0697 0.018,-0.125 0.01,-0.0553 0.021,-0.13048 0.028,-0.16698 0.014,-0.0639 0.045,-0.24091 0.065,-0.37114 0.01,-0.0344 0.019,-0.11172 0.03,-0.17187 0.038,-0.20268 0.054,-0.29645 0.066,-0.38707 0.032,-0.23801 0.045,-0.0621 0.045,0.60061 l 0,0.72395 -0.125,0 c -0.077,0 -0.1264,-0.0149 -0.1287,-0.0391 z"
           style="fill:#030368;fill-opacity:1" />
        <path
           transform="scale(0.8,0.8)"
           inkscape:connector-curvature="0"
           id="path3365"
           d="m 1169.7076,650.69436 c -2e-4,-0.003 -3e-4,-0.006 -10e-5,-0.008 6e-4,-0.004 0,-0.0262 0.01,-0.0394 0,-0.0147 0,-0.0237 0.01,-0.04 10e-4,-0.006 0,-0.0179 0,-0.0254 0,-0.008 0,-0.0189 0,-0.0253 0,-0.0225 0,-0.0135 0,0.0401 l -0,0.0542 0.012,0.008 c 0.01,0.005 0.021,0.0108 0.032,0.0137 0.021,0.005 0.019,0.0104 -0,0.0104 -0.01,0 -0.043,0.008 -0.056,0.0135 -0,0.002 -0.01,0.001 -0.01,-0.002 z"
           style="fill:#030368;fill-opacity:1" />
        <path
           transform="scale(0.8,0.8)"
           inkscape:connector-curvature="0"
           id="path3367"
           d="m 1169.9863,651.51426 c 0,-2.00292 -2e-4,-2.26321 -0.024,-2.25766 -0,8.1e-4 -0,-0.002 -0,-0.01 0,-0.0157 0.01,-0.0252 0.01,-0.0363 8e-4,-0.005 0,-0.0155 0,-0.0225 l 0,-0.0254 c 0,-0.007 0,-0.0171 0,-0.0225 8e-4,-0.005 0,-0.0142 0,-0.0195 0,-0.005 0,-0.0142 0,-0.0195 0,-0.0305 0.01,-0.0412 0.01,-0.0426 9e-4,-9e-4 0,0.89163 0,1.98339 0,1.84143 -5e-4,1.98503 -0.01,1.98503 -0.01,0 -0.01,-0.10924 -0,-1.51269 z"
           style="fill:#030368;fill-opacity:1" />
      </g>
      <path
         style="fill:#030368;fill-opacity:1"
         d="m 1123.4231,729.30338 c 0,-0.0314 0.2557,-0.97604 0.5682,-2.09922 3.3658,-12.09759 8.4098,-32.11512 9.2368,-36.65767 2.015,-11.06731 3.7032,-22.87363 5.3511,-37.42097 0.9547,-8.4284 1.0171,-10.30647 1.0181,-30.64865 l 9e-4,-15.9762 15.2028,0 15.2028,0 0,21.15005 c 0,20.97643 -0,21.15823 -0.1822,22.14726 -0.1002,0.54847 -0.163,1.04424 -0.1395,1.10172 0.023,0.0575 0.046,0.0349 0.05,-0.0502 0,-0.0851 0.047,-0.15467 0.097,-0.15467 0.06,0 0.082,2.04441 0.066,6.16508 l -0.023,6.16509 -0.4585,1.76777 c -0.7692,2.96544 -1.186,5.0716 -2.3701,11.97662 -0.7534,4.3936 -1.2067,6.82053 -1.6426,8.79464 -0.3944,1.78615 -1.1582,4.74147 -1.2117,4.68805 -0.019,-0.0192 0.072,-0.81221 0.2027,-1.76225 0.1306,-0.95004 0.2225,-1.77242 0.2042,-1.82751 -0.018,-0.0551 -0.1441,0.71924 -0.2795,1.72074 -0.1353,1.00149 -0.2191,1.90553 -0.1863,2.00897 0.036,0.11326 0.025,0.16695 -0.026,0.13496 -0.049,-0.0305 -0.1092,0.14498 -0.1405,0.41172 -0.1245,1.05918 -2.3926,11.49746 -3.9024,17.95984 -1.5477,6.6243 -3.8467,15.73706 -5.0452,19.99787 l -0.1306,0.46403 -15.7306,0 c -8.6519,0 -15.7307,-0.0257 -15.7307,-0.0571 z m 41.3481,-43.82772 c -0,-0.19559 -0.023,-0.1608 -0.075,0.13258 -0.039,0.21876 -0.069,0.51707 -0.066,0.66292 0,0.19558 0.023,0.1608 0.075,-0.13259 0.039,-0.21876 0.069,-0.51707 0.066,-0.66291 z m 0.08,-0.77237 c -0.021,-0.10994 -0.039,-0.0408 -0.04,0.15365 -9e-4,0.19446 0.016,0.28441 0.039,0.19991 0.022,-0.0845 0.023,-0.24361 0,-0.35356 l 0,0 z m 0.185,-1.26056 c -0,-0.19559 -0.023,-0.1608 -0.075,0.13258 -0.039,0.21876 -0.069,0.51707 -0.066,0.66291 0,0.19559 0.023,0.1608 0.075,-0.13258 0.039,-0.21876 0.069,-0.51707 0.066,-0.66291 z m 0.1768,-1.32583 c -0,-0.19559 -0.023,-0.1608 -0.075,0.13259 -0.039,0.21876 -0.069,0.51707 -0.066,0.66291 0,0.19559 0.023,0.1608 0.075,-0.13258 0.039,-0.21877 0.069,-0.51708 0.066,-0.66292 z m 0.2645,-2.03293 c -0,-0.14584 -0.056,0.0729 -0.1193,0.48614 -0.063,0.41321 -0.1121,0.87062 -0.1093,1.01646 0,0.14584 0.056,-0.0729 0.1192,-0.48613 0.063,-0.41322 0.1121,-0.87063 0.1094,-1.01647 z m 0.1774,-1.32582 c -0,-0.19559 -0.023,-0.1608 -0.075,0.13258 -0.039,0.21876 -0.069,0.51707 -0.066,0.66291 0,0.19559 0.023,0.1608 0.075,-0.13258 0.039,-0.21876 0.069,-0.51707 0.066,-0.66291 z m 0.08,-0.77237 c -0.021,-0.10995 -0.039,-0.0408 -0.04,0.15365 -10e-4,0.19445 0.016,0.28441 0.039,0.1999 0.022,-0.0845 0.023,-0.2436 0,-0.35355 l 0,0 z m 0.185,-1.26057 c -0,-0.19559 -0.023,-0.1608 -0.075,0.13259 -0.039,0.21876 -0.069,0.51707 -0.066,0.66291 0,0.19559 0.023,0.1608 0.075,-0.13258 0.039,-0.21876 0.069,-0.51708 0.066,-0.66292 z m 0.2645,-2.03293 c -0,-0.14584 -0.056,0.0729 -0.1193,0.48614 -0.063,0.41321 -0.112,0.87062 -0.1093,1.01646 0,0.14584 0.056,-0.0729 0.1192,-0.48613 0.063,-0.41322 0.1121,-0.87063 0.1094,-1.01647 z m 0.1774,-1.32582 c -0,-0.19559 -0.023,-0.1608 -0.075,0.13258 -0.039,0.21876 -0.069,0.51707 -0.066,0.66291 0,0.19559 0.023,0.1608 0.075,-0.13258 0.039,-0.21876 0.069,-0.51707 0.066,-0.66291 z m 0.1768,-1.32583 c -0,-0.19559 -0.023,-0.1608 -0.075,0.13258 -0.039,0.21876 -0.069,0.51708 -0.066,0.66292 0,0.19559 0.023,0.1608 0.075,-0.13259 0.039,-0.21876 0.069,-0.51707 0.066,-0.66291 z m 0.1768,-1.32582 c -0,-0.19559 -0.023,-0.1608 -0.075,0.13258 -0.039,0.21876 -0.069,0.51707 -0.066,0.66291 0,0.19559 0.023,0.1608 0.075,-0.13258 0.039,-0.21876 0.069,-0.51707 0.066,-0.66291 z m 0.1768,-1.32583 c -0,-0.19559 -0.023,-0.1608 -0.075,0.13258 -0.039,0.21876 -0.069,0.51708 -0.066,0.66292 0,0.19559 0.023,0.1608 0.075,-0.13259 0.039,-0.21876 0.069,-0.51707 0.066,-0.66291 z m 0.079,-0.7292 c -0.022,-0.0851 -0.04,-0.0155 -0.04,0.15468 0,0.17014 0.018,0.23975 0.04,0.15468 0.022,-0.0851 0.022,-0.22429 0,-0.30936 z m 0.2754,-1.83406 c -0,-0.14584 -0.056,0.053 -0.1193,0.44194 -0.063,0.38891 -0.1136,0.82643 -0.1114,0.97227 0,0.14584 0.056,-0.053 0.1193,-0.44194 0.063,-0.38891 0.1136,-0.82643 0.1114,-0.97227 z m 0.078,-0.72921 c -0.022,-0.0851 -0.04,-0.0155 -0.04,0.15468 0,0.17015 0.018,0.23976 0.04,0.15468 0.022,-0.0851 0.022,-0.22428 0,-0.30936 z m 0.4449,-3.07149 c -0.025,-0.20241 -0.4229,2.47091 -0.4077,2.74004 0.01,0.0972 0.1043,-0.43973 0.2197,-1.19324 0.1154,-0.75351 0.2,-1.44957 0.188,-1.5468 z m 0.085,-0.64082 c -0.022,-0.0851 -0.04,-0.0155 -0.04,0.15468 0,0.17015 0.018,0.23976 0.04,0.15468 0.022,-0.0851 0.022,-0.22428 0,-0.30936 z m 0.088,-0.61871 c -0.022,-0.0851 -0.04,-0.0155 -0.04,0.15468 0,0.17014 0.018,0.23975 0.04,0.15468 0.022,-0.0851 0.022,-0.22429 0,-0.30936 z m 0.088,-0.61872 c -0.022,-0.0851 -0.041,-0.0155 -0.041,0.15468 0,0.17014 0.018,0.23975 0.041,0.15468 0.022,-0.0851 0.022,-0.22429 0,-0.30936 z m 0.2759,-1.70148 c -0,-0.12153 -0.058,0.0773 -0.1215,0.44194 -0.064,0.36461 -0.1134,0.76235 -0.1103,0.88389 0,0.12153 0.058,-0.0773 0.1215,-0.44194 0.064,-0.36461 0.1134,-0.76235 0.1103,-0.88389 z m 0.1782,-1.14905 c -0,-0.14174 -0.031,-0.0942 -0.078,0.13259 -0.04,0.19445 -0.071,0.45299 -0.068,0.57452 0,0.14175 0.031,0.0942 0.078,-0.13258 0.04,-0.19446 0.071,-0.45299 0.068,-0.57453 z m 0.1768,-1.14905 c -0,-0.14174 -0.031,-0.0942 -0.078,0.13259 -0.04,0.19445 -0.071,0.45299 -0.068,0.57452 0,0.14175 0.031,0.0942 0.078,-0.13258 0.04,-0.19446 0.071,-0.45299 0.068,-0.57453 z m 0.1768,-1.14904 c -0,-0.14175 -0.031,-0.0942 -0.078,0.13258 -0.04,0.19445 -0.071,0.45299 -0.068,0.57452 0,0.14175 0.031,0.0942 0.078,-0.13258 0.04,-0.19445 0.071,-0.45299 0.068,-0.57452 z m 0.076,-0.59494 c -0.022,-0.086 -0.042,-0.037 -0.044,0.1088 -0,0.14584 0.016,0.2162 0.041,0.15636 0.024,-0.0598 0.026,-0.17916 0,-0.26516 l 0,0 z m 0.088,-0.53033 c -0.022,-0.086 -0.042,-0.037 -0.044,0.1088 -0,0.14584 0.017,0.2162 0.041,0.15636 0.024,-0.0598 0.026,-0.17916 0,-0.26516 l 0,0 z m 0.3654,-2.1451 c -0,-0.12154 -0.077,0.17677 -0.1658,0.66291 -0.089,0.48614 -0.1596,0.98332 -0.1573,1.10485 0,0.12154 0.077,-0.17677 0.1658,-0.66291 0.089,-0.48613 0.1597,-0.98332 0.1573,-1.10485 z m 0.2658,-1.5468 c -0,-0.0972 -0.06,0.0818 -0.1244,0.39775 -0.065,0.31599 -0.115,0.65407 -0.1115,0.7513 0,0.0972 0.06,-0.0818 0.1243,-0.39775 0.065,-0.31599 0.1151,-0.65407 0.1116,-0.7513 z"
         id="path3376"
         inkscape:connector-curvature="0"
         transform="scale(0.8,0.8)" />
    </g>
  </g>
  <path
     fill="#fdfdfe"
     d=" M 24.83 30.10 C 25.51 28.88 26.56 28.38 27.96 28.61 C 318.64 28.59 609.32 28.60 900.00 28.60 C 903.90 28.83 908.03 27.86 911.72 29.54 C 911.59 184.36 911.70 339.18 911.66 494.00 C 911.58 502.67 911.97 511.38 911.11 520.03 C 909.86 531.51 908.33 542.99 906.20 554.36 C 899.57 581.89 891.86 609.25 881.53 635.65 C 880.65 637.86 877.94 636.42 876.81 635.22 C 793.23 560.13 709.41 485.30 625.79 410.27 C 579.82 369.22 534.04 327.97 488.03 286.97 C 483.27 282.38 478.07 278.28 473.40 273.60 C 471.56 272.00 469.34 269.29 466.65 270.66 C 334.53 389.17 202.38 507.67 70.27 626.20 C 65.58 629.93 61.82 634.82 56.55 637.79 C 52.37 628.75 48.72 619.43 45.86 609.88 C 39.08 588.51 32.25 567.00 28.99 544.76 C 26.68 532.96 25.31 521.00 24.67 509.01 C 24.70 352.67 24.67 196.34 24.68 40.01 C 24.73 36.70 24.50 33.39 24.83 30.10 Z"
     id="path6" />
  <path
     fill="#030368"
     d=" M 194.70 73.47 C 203.70 70.77 209.27 62.18 218.22 59.37 C 221.85 57.99 225.96 58.93 229.26 60.77 C 234.31 64.08 237.67 69.28 242.17 73.20 C 244.15 73.91 246.79 74.07 248.47 72.56 C 252.20 69.82 255.21 66.15 259.35 63.97 C 260.50 69.95 259.46 76.56 255.26 81.19 C 252.68 85.01 247.63 87.80 247.67 92.90 C 247.64 106.94 247.70 120.98 247.65 135.02 C 247.22 143.58 251.57 151.30 254.07 159.25 C 256.56 167.45 259.88 175.45 261.10 183.98 C 261.81 190.31 263.03 196.60 262.62 203.00 C 263.29 217.27 258.70 231.01 253.79 244.19 C 248.48 262.14 243.29 280.20 240.02 298.66 C 239.40 302.07 238.37 305.44 238.43 308.94 C 238.46 324.84 238.37 340.74 238.49 356.64 C 241.14 358.96 244.19 361.35 247.92 361.28 C 252.61 361.31 257.31 361.38 262.00 361.24 C 263.37 361.31 264.35 360.09 264.97 359.02 C 266.89 355.69 268.17 351.96 270.78 349.07 C 272.84 352.91 273.80 357.24 275.97 361.02 C 279.83 364.00 284.51 365.73 288.51 368.52 C 288.49 368.80 288.46 369.36 288.44 369.64 C 284.65 372.60 279.89 374.06 276.13 377.05 C 274.04 379.87 273.48 383.51 271.59 386.46 C 271.33 386.44 270.82 386.41 270.56 386.39 C 268.64 383.55 267.36 380.35 265.61 377.42 C 256.16 377.18 246.71 377.28 237.26 377.36 C 235.56 379.61 233.36 381.94 233.49 384.97 C 233.55 390.44 233.18 395.96 233.70 401.41 C 235.55 403.87 238.02 405.77 240.07 408.05 C 238.34 409.71 236.45 411.18 234.54 412.61 C 231.44 414.83 229.91 418.57 226.77 420.74 C 225.01 418.34 223.45 415.76 221.37 413.63 C 219.11 411.66 216.39 410.36 213.94 408.68 C 215.30 405.64 218.42 404.06 220.40 401.50 C 220.98 396.34 220.54 391.11 220.67 385.93 C 221.01 382.51 218.87 378.74 215.77 377.45 C 207.34 377.23 198.85 377.06 190.44 377.54 C 187.86 379.78 187.81 383.90 185.71 386.62 C 185.39 386.62 184.74 386.63 184.42 386.63 C 182.14 383.47 181.08 379.50 178.37 376.66 C 174.49 373.62 169.67 371.87 166.21 368.27 C 170.37 365.61 175.15 364.03 179.15 361.15 C 181.58 357.81 182.62 353.71 184.42 350.04 C 184.84 350.27 185.68 350.73 186.10 350.96 C 187.57 354.00 188.48 357.28 189.67 360.45 C 194.66 361.97 199.94 361.07 205.07 361.31 C 209.35 361.75 213.46 358.70 215.18 354.94 C 215.55 339.62 215.26 324.27 215.33 308.94 C 213.13 289.59 207.00 271.02 201.80 252.33 C 199.75 244.68 196.86 237.30 194.31 229.82 C 190.04 216.72 189.78 202.68 191.05 189.09 C 192.36 175.12 199.51 162.84 204.13 149.86 C 205.65 145.65 208.42 141.70 208.31 137.06 C 208.26 127.35 208.34 117.64 208.28 107.93 C 208.30 104.47 205.75 101.78 203.13 99.87 C 194.03 93.13 181.47 91.83 173.92 82.89 C 180.17 78.45 187.41 75.66 194.70 73.47 Z"
     id="path8" />
  <path
     fill="#030368"
     d=" M 678.51 73.35 C 687.01 70.49 692.76 62.87 701.01 59.53 C 704.27 59.02 707.68 58.94 710.92 59.67 C 716.03 62.12 719.79 66.49 723.11 70.96 C 724.80 73.62 728.45 74.45 731.21 73.09 C 735.29 70.21 738.47 65.92 743.47 64.47 C 743.40 68.65 743.95 73.15 741.91 76.97 C 739.01 81.60 734.90 85.30 731.67 89.67 C 731.11 92.06 731.34 94.54 731.30 96.98 C 731.35 110.99 731.26 125.00 731.34 139.00 C 731.27 141.77 732.49 144.30 733.43 146.84 C 735.87 153.00 737.44 159.46 739.55 165.75 C 742.40 173.91 744.93 182.31 745.62 190.97 C 747.83 205.41 745.28 220.18 740.95 234.00 C 738.32 242.04 735.91 250.16 733.36 258.22 C 728.91 272.33 726.53 286.96 723.02 301.31 C 721.85 305.78 722.17 310.43 722.14 315.00 C 722.23 329.05 721.96 343.10 722.28 357.14 C 725.14 359.17 728.17 361.60 731.92 361.30 C 737.13 361.15 742.42 361.78 747.57 360.68 C 749.64 356.81 751.32 352.69 754.02 349.19 C 756.46 352.96 757.17 357.58 759.73 361.26 C 763.58 364.02 767.95 365.97 771.98 368.48 C 769.49 373.22 762.97 373.54 759.73 377.59 C 757.95 380.52 756.62 383.69 754.88 386.64 C 752.21 384.56 751.39 381.15 749.55 378.46 C 748.69 376.78 746.55 377.49 745.07 377.28 C 736.82 377.37 728.58 377.13 720.34 377.43 C 715.13 383.11 717.00 391.11 716.69 398.09 C 716.28 403.01 721.99 404.66 723.92 408.53 C 721.18 410.59 717.99 412.13 715.82 414.84 C 714.20 416.83 712.67 418.89 711.02 420.85 C 707.30 416.26 703.53 411.53 698.05 408.96 C 698.90 405.60 702.46 404.15 704.39 401.50 C 704.97 396.02 704.57 390.47 704.64 384.96 C 704.77 381.94 702.63 379.46 700.51 377.59 C 691.62 377.03 682.62 377.17 673.71 377.56 C 672.24 380.55 670.84 383.57 669.46 386.61 C 669.02 386.61 668.13 386.61 667.69 386.61 C 665.46 382.56 664.15 377.50 659.87 375.07 C 656.75 373.17 653.55 371.42 650.45 369.51 C 650.44 369.05 650.43 368.14 650.42 367.69 C 653.98 365.84 657.64 364.19 661.13 362.21 C 665.64 359.44 665.23 352.66 669.69 349.95 C 671.15 353.40 672.41 356.93 673.66 360.46 C 677.65 361.75 681.88 361.20 686.00 361.32 C 688.92 361.30 692.26 361.69 694.59 359.53 C 696.22 357.99 698.83 356.65 698.58 354.06 C 698.65 338.36 698.69 322.66 698.55 306.96 C 695.01 283.77 688.63 261.07 680.94 238.93 C 677.57 229.95 674.47 220.65 674.27 210.97 C 674.03 201.41 673.79 191.76 676.10 182.40 C 676.71 174.50 681.25 167.82 683.55 160.41 C 686.57 151.75 692.50 143.57 691.54 134.00 C 691.47 125.02 691.58 116.04 691.50 107.06 C 691.65 104.78 690.06 102.93 688.53 101.46 C 679.24 93.34 665.74 91.92 657.09 82.94 C 663.65 78.61 671.13 75.91 678.51 73.35 Z"
     id="path10" />
  <path
     fill="#fdfdfe"
     d=" M 215.51 73.71 C 217.67 73.25 220.42 73.09 221.97 75.00 C 224.02 76.97 223.91 80.09 223.46 82.67 C 222.42 86.59 217.31 87.78 214.11 85.74 C 209.56 83.25 210.41 75.13 215.51 73.71 Z"
     id="path12" />
  <path
     fill="#fdfdfe"
     d=" M 697.52 74.49 C 701.47 71.39 708.13 74.94 707.52 80.01 C 708.09 84.03 704.00 87.47 700.13 86.62 C 694.48 86.17 693.47 77.46 697.52 74.49 Z"
     id="path14" />
  <path
     fill="#030368"
     d=" M 73.29 93.48 C 79.45 89.54 86.87 88.57 93.97 87.59 C 103.96 86.92 114.10 86.95 123.96 88.93 C 137.58 91.11 149.42 99.41 158.94 109.02 C 166.50 118.20 173.22 128.49 176.20 140.13 C 177.57 145.38 179.98 150.51 179.60 156.06 C 173.32 153.33 167.36 149.74 160.56 148.37 C 148.48 144.60 135.86 142.75 124.01 138.21 C 112.16 133.95 100.46 129.05 89.67 122.50 C 85.32 119.88 81.25 116.83 76.99 114.07 C 80.93 121.71 85.43 129.30 91.93 135.06 C 97.29 140.94 105.16 143.09 111.92 146.83 C 120.02 151.48 129.28 153.28 137.87 156.78 C 149.36 160.22 161.08 163.07 172.07 167.96 C 173.84 170.62 173.45 173.95 173.70 176.98 C 173.77 181.87 173.92 186.77 173.60 191.66 C 172.47 199.93 168.55 207.42 165.10 214.91 C 163.83 217.21 162.40 219.42 160.91 221.59 C 160.79 219.67 160.68 217.76 160.66 215.85 C 162.15 203.34 162.10 190.06 156.37 178.52 C 155.04 176.27 154.13 172.57 150.79 173.39 C 150.62 179.60 150.34 185.80 150.27 192.00 C 148.56 205.53 146.96 219.40 141.25 231.94 C 137.57 240.57 134.74 249.80 129.09 257.40 C 129.45 250.17 129.29 242.90 130.38 235.72 C 130.36 227.13 131.65 218.60 131.55 210.00 C 130.80 198.99 129.92 187.68 125.16 177.54 C 123.04 173.35 120.99 168.99 117.64 165.62 C 116.94 173.73 117.67 181.89 117.25 190.01 C 115.86 199.62 117.46 209.41 115.78 219.02 C 115.47 228.73 112.07 237.96 109.17 247.13 C 106.63 255.23 102.39 262.66 98.52 270.17 C 97.96 270.59 96.84 271.41 96.28 271.83 C 96.16 265.48 97.60 259.28 98.22 252.99 C 98.69 246.29 99.74 239.65 100.47 232.98 C 100.98 219.42 101.63 205.67 98.90 192.28 C 96.61 182.97 93.26 173.91 89.39 165.16 C 88.92 164.78 87.97 164.02 87.50 163.65 C 87.05 169.80 88.56 175.85 88.29 182.00 C 88.53 196.27 87.11 210.47 86.31 224.71 C 84.61 234.70 83.23 244.74 81.22 254.67 C 79.60 260.58 77.90 266.47 76.22 272.36 C 72.34 282.36 67.73 292.07 62.77 301.58 C 61.99 303.20 60.79 304.54 59.33 305.58 C 58.86 300.63 60.38 295.86 61.07 291.02 C 62.92 269.71 65.50 248.42 65.60 227.00 C 66.74 217.37 66.19 207.63 66.19 197.96 C 65.26 192.01 65.80 185.96 64.87 180.01 C 64.32 175.19 64.65 170.24 63.16 165.57 C 61.45 163.03 58.35 161.95 55.77 160.52 C 48.09 156.66 39.34 156.24 30.90 156.26 C 31.41 155.35 31.75 154.31 32.55 153.60 C 39.44 147.79 47.64 143.38 56.68 142.21 C 56.52 137.39 54.36 132.86 54.47 128.01 C 54.19 122.76 55.63 117.67 56.79 112.61 C 57.66 109.01 59.16 105.47 61.83 102.84 C 65.36 99.39 68.88 95.82 73.29 93.48 Z"
     id="path16" />
  <path
     fill="#030368"
     d=" M 320.20 91.22 C 325.56 89.11 331.32 88.55 336.97 87.71 C 349.89 86.74 363.34 86.67 375.59 91.46 C 380.84 93.90 385.50 97.43 389.89 101.17 C 394.78 105.35 396.22 111.98 397.53 117.97 C 398.16 126.04 398.11 134.23 396.28 142.14 C 401.07 143.33 406.16 144.01 410.38 146.74 C 414.43 149.35 418.53 151.94 422.12 155.17 C 420.86 155.93 419.51 156.57 418.01 156.40 C 408.98 156.12 399.80 158.36 392.22 163.37 C 391.31 163.97 390.41 164.65 389.89 165.63 C 388.62 170.32 388.53 175.21 388.28 180.02 C 386.85 192.29 387.37 204.67 387.27 217.00 C 387.37 227.64 386.83 238.33 388.32 248.90 C 388.44 254.92 389.43 260.87 389.42 266.89 C 389.76 279.92 392.75 292.70 393.71 305.65 C 389.86 302.85 387.94 298.35 385.81 294.26 C 381.89 285.65 377.94 276.97 375.57 267.77 C 372.02 255.35 368.37 242.83 367.34 229.89 C 366.72 225.27 366.39 220.62 365.73 216.01 C 364.88 204.02 365.38 192.00 365.24 180.00 C 365.07 173.92 365.92 167.86 365.34 161.79 C 361.01 168.99 358.64 177.10 356.10 185.04 C 351.63 196.10 351.07 208.22 351.49 220.00 C 351.92 229.87 352.34 239.76 353.75 249.56 C 354.72 256.57 356.06 263.54 356.38 270.62 C 354.90 269.06 353.44 267.49 352.12 265.81 C 346.00 253.53 339.94 240.83 338.19 227.06 C 337.47 221.05 336.11 215.10 336.40 209.02 C 334.81 194.60 336.37 180.04 335.39 165.59 C 331.36 170.25 328.64 175.88 326.32 181.54 C 323.29 190.70 321.01 200.29 321.54 210.00 C 320.97 226.15 324.21 242.14 324.18 258.27 C 321.15 255.49 320.11 251.40 318.31 247.85 C 313.33 238.14 309.74 227.76 306.93 217.23 C 305.16 208.56 303.66 199.82 302.73 191.02 C 302.13 185.06 302.47 179.06 302.21 173.08 C 298.65 173.37 297.53 177.24 295.99 179.88 C 293.05 185.46 291.51 191.68 291.20 197.96 C 290.38 206.54 292.49 215.13 291.33 223.70 C 285.78 210.28 277.80 197.01 278.62 181.96 C 279.27 177.27 279.53 172.50 280.70 167.89 C 284.49 166.50 288.30 165.18 292.10 163.80 C 301.20 160.22 310.95 158.70 320.03 155.05 C 326.02 152.67 332.44 151.42 338.16 148.36 C 342.40 146.16 346.66 144.01 351.01 142.00 C 361.87 137.52 368.09 126.89 374.50 117.67 C 375.42 116.21 376.23 114.68 377.04 113.14 C 372.97 115.22 369.33 117.99 365.79 120.85 C 360.63 124.74 354.51 127.02 348.85 130.05 C 343.25 133.08 337.18 135.04 331.27 137.32 C 316.24 143.41 299.96 145.33 284.75 150.84 C 280.85 152.40 277.24 154.60 273.31 156.10 C 273.35 148.93 275.53 141.94 278.27 135.37 C 285.33 115.79 300.32 98.39 320.20 91.22 Z"
     id="path18" />
  <path
     fill="#030368"
     d=" M 562.06 90.99 C 574.81 86.50 588.62 86.70 601.90 87.93 C 616.11 89.45 629.87 95.85 639.59 106.42 C 645.68 112.07 650.83 118.74 654.48 126.22 C 658.69 135.70 662.61 145.49 663.63 155.90 C 659.95 155.23 656.88 152.99 653.48 151.58 C 638.60 145.33 622.23 144.01 607.25 138.05 C 601.01 135.59 594.55 133.62 588.60 130.47 C 582.44 127.30 576.03 124.56 570.26 120.69 C 567.57 118.91 564.90 117.06 561.94 115.77 C 562.68 119.59 565.45 122.45 567.52 125.59 C 571.65 131.53 576.31 137.50 582.94 140.78 C 592.62 145.27 601.98 150.56 612.29 153.53 C 623.63 158.24 635.82 160.28 647.24 164.77 C 650.20 165.99 653.61 166.54 656.07 168.71 C 658.90 181.48 658.37 195.40 652.33 207.21 C 650.62 210.37 649.48 213.79 648.16 217.12 C 647.10 218.66 645.92 220.13 644.74 221.58 C 645.05 208.70 647.35 195.16 641.99 182.91 C 640.56 179.59 638.77 176.44 636.74 173.45 C 636.20 173.39 635.10 173.29 634.55 173.24 C 634.38 198.16 630.39 223.59 619.01 246.01 C 616.98 249.80 615.96 254.40 612.53 257.24 C 612.27 247.11 613.71 237.05 614.52 226.98 C 614.90 218.00 614.90 208.98 614.58 199.99 C 613.20 188.12 609.04 176.62 602.70 166.48 C 602.19 166.41 601.18 166.27 600.67 166.20 C 600.49 179.46 600.90 192.73 600.44 205.99 C 600.55 224.48 596.08 243.01 587.43 259.37 C 584.82 264.09 583.10 269.35 579.60 273.52 C 579.46 261.87 582.91 250.49 583.51 238.87 C 584.60 223.06 586.14 206.83 582.05 191.30 C 579.33 181.54 576.86 171.50 571.48 162.79 C 569.97 167.47 571.75 172.23 571.52 176.99 C 571.45 187.33 571.62 197.66 571.43 208.00 C 570.19 221.29 569.16 234.65 566.34 247.72 C 562.40 263.73 558.15 279.87 550.32 294.50 C 547.96 298.57 546.73 303.66 542.63 306.42 C 545.01 286.65 548.05 266.92 548.68 246.99 C 550.46 227.71 549.48 208.31 549.44 188.98 C 548.74 182.55 547.89 176.12 547.44 169.67 C 547.29 167.59 546.89 165.19 545.03 163.94 C 536.42 157.59 525.40 155.99 514.94 156.29 C 516.10 152.04 520.87 150.64 524.01 148.13 C 528.55 144.61 534.26 143.45 539.76 142.33 C 539.94 138.15 538.24 134.18 538.45 130.00 C 538.56 125.55 538.04 121.00 539.24 116.65 C 540.41 111.39 541.77 105.72 545.95 101.96 C 550.75 97.59 556.05 93.57 562.06 90.99 Z"
     id="path20" />
  <path
     fill="#030368"
     d=" M 795.90 94.85 C 807.38 88.25 821.03 87.18 834.00 87.21 C 845.45 87.35 857.66 88.84 867.09 95.93 C 871.70 99.60 876.83 103.48 878.66 109.35 C 880.43 114.76 881.64 120.35 882.16 126.03 C 882.05 131.48 880.69 136.81 880.22 142.23 C 889.98 143.67 898.76 148.70 905.93 155.33 C 902.95 157.22 899.30 156.05 896.01 156.53 C 887.98 157.32 879.41 159.70 873.53 165.44 C 871.03 174.01 871.99 183.19 870.70 191.99 C 870.24 201.32 870.63 210.67 870.48 220.01 C 871.53 242.35 872.26 264.76 875.39 286.95 C 875.93 293.48 877.83 299.90 877.46 306.49 C 870.92 299.29 868.02 289.70 863.92 281.05 C 859.19 271.55 857.31 261.02 854.90 250.78 C 853.28 244.07 851.99 237.26 851.18 230.40 C 850.34 220.40 849.76 210.37 849.20 200.35 C 847.75 187.43 850.43 174.50 849.35 161.57 C 847.21 164.30 845.71 167.45 844.74 170.77 C 840.98 180.86 836.88 191.09 836.28 201.97 C 833.45 220.66 837.22 239.40 838.90 258.00 C 839.52 263.19 840.82 268.34 840.49 273.61 C 836.02 268.35 833.60 261.74 830.61 255.60 C 824.95 242.08 821.14 227.70 820.20 213.04 C 819.19 206.73 819.92 200.33 819.60 193.99 C 819.01 184.59 819.65 175.17 819.18 165.77 C 815.03 169.38 812.90 174.62 810.54 179.45 C 805.37 192.25 804.84 206.37 805.50 220.00 C 805.38 232.50 807.89 244.91 807.33 257.41 C 804.04 253.22 802.21 248.14 799.92 243.39 C 796.09 233.43 791.21 223.76 789.48 213.13 C 788.36 205.79 786.43 198.49 786.63 191.01 C 786.65 185.06 785.52 179.18 785.41 173.23 C 784.87 173.28 783.78 173.39 783.23 173.44 C 777.09 182.29 774.55 193.32 775.32 204.00 C 774.76 210.91 776.51 217.67 776.52 224.54 C 772.85 220.37 771.43 214.75 769.02 209.81 C 766.12 203.49 763.41 196.98 762.60 190.02 C 762.56 182.61 761.79 174.91 764.70 167.89 C 775.45 163.47 786.57 160.14 797.77 157.07 C 806.51 153.55 815.92 151.70 824.17 147.00 C 830.37 143.53 837.47 141.60 842.89 136.83 C 850.01 130.96 854.94 122.97 859.02 114.82 C 853.10 118.15 847.73 122.40 841.69 125.54 C 828.18 132.67 813.86 138.32 799.15 142.41 C 789.84 144.43 780.68 147.02 771.52 149.63 C 766.28 151.15 761.73 154.31 756.58 156.03 C 756.67 154.08 756.94 152.14 757.41 150.25 C 760.17 139.88 763.07 129.29 769.31 120.38 C 775.60 109.62 785.13 100.99 795.90 94.85 Z"
     id="path22" />
  <path
     fill="#8484b5"
     d=" M 365.79 120.85 C 369.33 117.99 372.97 115.22 377.04 113.14 C 376.23 114.68 375.42 116.21 374.50 117.67 C 371.47 118.38 368.64 119.65 365.79 120.85 Z"
     id="path24" />
  <path
     fill="#8484b5"
     d=" M 844.74 170.77 C 845.71 167.45 847.21 164.30 849.35 161.57 C 850.43 174.50 847.75 187.43 849.20 200.35 C 849.76 210.37 850.34 220.40 851.18 230.40 L 851.23 231.36 C 849.35 226.48 849.56 221.18 849.15 216.06 C 848.39 204.38 847.77 192.69 848.26 180.99 C 848.58 176.20 848.63 171.39 848.28 166.61 C 847.08 167.98 845.92 169.38 844.74 170.77 Z"
     id="path26" />
  <path
     fill="#8484b5"
     d=" M 291.20 197.96 C 291.51 191.68 293.05 185.46 295.99 179.88 C 294.89 185.80 292.53 191.46 292.10 197.51 C 291.02 207.75 293.54 217.93 293.43 228.17 C 292.09 227.04 290.79 225.60 291.33 223.70 C 292.49 215.13 290.38 206.54 291.20 197.96 Z"
     id="path28" />
  <path
     fill="#8484b5"
     d=" M 641.99 182.91 C 647.35 195.16 645.05 208.70 644.74 221.58 C 645.92 220.13 647.10 218.66 648.16 217.12 C 647.25 221.07 645.72 224.87 643.46 228.25 C 642.94 219.23 644.96 210.29 644.69 201.27 C 644.42 195.07 642.82 189.04 641.99 182.91 Z"
     id="path30" />
  <path
     fill="#8484b5"
     d=" M 351.49 220.00 C 351.07 208.22 351.63 196.10 356.10 185.04 C 355.11 192.74 352.52 200.19 352.42 208.02 C 352.03 222.96 353.11 237.94 355.23 252.73 C 356.12 260.23 357.87 267.69 357.63 275.29 C 354.70 272.89 353.21 269.33 352.12 265.81 C 353.44 267.49 354.90 269.06 356.38 270.62 C 356.06 263.54 354.72 256.57 353.75 249.56 C 352.34 239.76 351.92 229.87 351.49 220.00 Z"
     id="path32" />
  <path
     fill="#8484b5"
     d=" M 160.91 221.59 C 162.40 219.42 163.83 217.21 165.10 214.91 C 163.88 219.59 162.26 224.26 159.48 228.26 C 159.07 224.09 159.49 219.87 160.66 215.85 C 160.68 217.76 160.79 219.67 160.91 221.59 Z"
     id="path34" />
  <path
     fill="#030368"
     d=" M 171.49 252.54 C 175.55 251.43 179.06 254.62 182.24 256.65 C 187.84 260.33 190.46 266.83 192.28 272.99 C 193.97 281.50 189.56 289.45 185.79 296.73 C 182.21 303.77 176.32 309.53 169.42 313.30 C 165.39 314.52 161.21 313.21 157.33 312.07 C 151.12 310.13 144.82 308.53 138.54 306.83 C 136.27 306.35 133.75 305.78 131.54 306.77 C 124.19 310.58 117.66 315.84 112.07 321.93 C 115.20 328.65 121.94 332.33 127.24 337.09 C 121.89 338.47 116.47 339.60 111.01 340.41 C 104.33 341.37 98.68 336.82 92.46 335.30 C 85.96 334.73 80.25 339.52 73.66 338.61 C 75.99 335.59 79.18 333.46 82.06 331.02 C 89.85 324.53 97.68 318.04 104.64 310.64 C 108.78 306.13 113.05 301.73 117.47 297.49 C 120.90 294.71 125.18 293.25 128.67 290.54 C 135.42 285.40 142.20 280.22 148.00 274.00 C 155.68 266.69 162.48 258.27 171.49 252.54 Z"
     id="path36" />
  <path
     fill="#030368"
     d=" M 653.50 253.56 C 657.05 250.69 661.44 253.42 664.63 255.47 C 670.16 258.71 672.88 264.85 675.13 270.56 C 677.70 277.75 674.91 285.35 671.71 291.85 C 667.86 299.94 662.82 308.11 654.71 312.48 C 651.48 314.46 647.46 313.91 644.02 312.87 C 636.83 310.72 629.53 308.96 622.33 306.88 C 619.65 306.14 616.59 305.79 614.12 307.32 C 608.03 310.55 602.83 315.16 597.54 319.52 C 595.85 320.51 596.02 322.78 596.65 324.37 C 600.33 329.81 606.33 332.81 611.11 337.08 C 606.14 338.40 601.06 339.24 596.03 340.24 C 589.21 341.60 583.04 337.54 576.85 335.40 C 570.23 334.39 564.39 339.22 557.76 338.59 C 565.25 330.78 573.87 324.10 582.04 317.01 C 590.25 309.53 596.17 299.35 606.28 294.13 C 614.19 289.75 621.09 283.82 627.92 277.96 C 636.01 269.42 643.81 260.35 653.50 253.56 Z"
     id="path38" />
  <path
     fill="#030368"
     d=" M 756.82 254.89 C 759.58 253.04 763.55 250.86 766.58 253.44 C 777.21 261.35 785.63 271.73 795.44 280.57 C 799.26 284.17 803.63 287.09 807.72 290.37 C 811.88 293.63 817.17 295.24 820.93 299.05 C 823.61 301.69 826.29 304.36 828.70 307.26 C 835.94 315.72 844.69 322.66 853.11 329.88 C 856.35 332.64 860.02 335.06 862.39 338.69 C 856.00 339.26 850.46 334.79 844.14 335.30 C 839.89 336.33 836.08 338.65 831.87 339.83 C 828.05 341.32 823.98 340.14 820.14 339.47 C 816.84 338.81 813.50 338.29 810.27 337.35 C 810.27 337.01 810.25 336.34 810.24 336.00 C 814.66 332.95 818.97 329.64 822.43 325.49 C 823.64 324.21 824.11 322.25 823.49 320.59 C 817.72 315.24 811.66 310.04 804.53 306.59 C 802.56 305.90 800.42 306.35 798.45 306.73 C 791.14 308.64 783.85 310.64 776.61 312.82 C 772.79 313.87 768.19 314.64 764.81 312.04 C 759.22 308.15 754.08 303.32 750.97 297.18 C 747.95 291.12 744.14 285.00 744.17 277.99 C 743.57 268.67 748.93 259.66 756.82 254.89 Z"
     id="path40" />
  <path
     fill="#030368"
     d=" M 262.01 285.14 C 257.00 272.59 264.86 257.50 277.07 252.68 C 278.58 252.27 280.41 251.95 281.82 252.85 C 289.33 257.19 294.83 264.06 301.04 269.96 C 310.56 279.88 320.89 289.27 333.09 295.79 C 342.59 302.56 348.85 312.84 358.01 320.01 C 365.09 326.22 372.71 331.86 379.33 338.59 C 372.65 339.40 366.81 334.69 360.17 335.31 C 353.90 337.27 347.81 341.46 340.96 340.32 C 335.89 339.33 330.78 338.47 325.77 337.18 C 330.30 332.10 337.65 329.61 340.50 322.98 C 340.48 322.53 340.43 321.62 340.41 321.17 C 335.33 316.02 329.54 311.57 323.38 307.80 C 321.01 306.18 318.03 305.88 315.30 306.63 C 307.45 308.77 299.57 310.81 291.76 313.08 C 288.52 314.00 284.73 314.36 281.82 312.33 C 271.60 306.63 266.04 295.66 262.01 285.14 Z"
     id="path42" />
  <path
     fill="#fdfdfe"
     d=" M 442.80 491.80 C 451.08 483.47 459.53 475.33 468.03 467.23 C 474.73 472.72 480.89 478.85 487.00 485.00 C 494.37 492.64 502.51 499.48 509.81 507.19 C 519.11 515.54 527.36 525.00 536.85 533.14 C 546.65 543.02 556.81 552.52 566.56 562.44 C 574.91 569.39 582.05 577.62 590.06 584.95 C 595.04 589.63 599.63 594.70 604.68 599.32 C 612.29 605.67 618.75 613.25 626.06 619.93 C 632.16 625.50 637.57 631.79 643.90 637.10 C 651.02 643.64 657.43 650.91 664.68 657.32 C 670.25 662.41 675.18 668.16 680.94 673.07 C 687.17 678.82 692.83 685.17 699.12 690.86 C 705.09 695.88 710.20 701.79 715.92 707.08 C 723.95 714.38 731.04 722.66 739.41 729.59 C 749.35 739.65 759.66 749.33 769.62 759.38 C 778.29 766.67 785.68 775.32 794.13 782.87 C 796.13 784.78 798.29 786.62 799.74 789.02 C 799.65 790.49 798.64 791.67 797.92 792.91 C 787.15 808.34 776.31 823.76 764.46 838.40 C 751.24 854.49 738.29 870.84 723.84 885.85 C 710.01 900.39 695.78 914.54 680.75 927.83 C 665.23 942.10 648.26 954.68 631.43 967.35 C 622.53 974.35 612.49 979.68 603.13 986.00 C 585.41 996.70 567.21 1006.65 548.28 1015.05 C 532.34 1022.42 515.59 1027.79 498.80 1032.84 C 490.96 1035.25 482.88 1036.72 474.89 1038.49 C 471.96 1039.10 468.96 1040.03 465.96 1039.40 C 452.71 1036.65 439.42 1033.89 426.64 1029.35 C 403.13 1022.51 380.82 1012.16 359.18 1000.84 C 348.85 994.86 338.26 989.31 328.31 982.71 C 320.90 977.79 313.02 973.56 306.05 968.01 C 293.63 958.78 281.32 949.40 269.33 939.61 C 265.00 935.98 260.47 932.55 256.52 928.50 C 249.65 921.67 242.01 915.69 235.22 908.78 C 228.49 901.85 221.35 895.30 214.96 888.03 C 201.41 874.51 189.48 859.50 177.25 844.80 C 167.87 833.44 159.01 821.67 150.42 809.71 C 146.14 802.69 140.53 796.47 137.07 788.98 C 140.04 785.65 143.23 782.53 146.52 779.52 C 153.60 772.93 159.95 765.58 167.40 759.39 C 173.92 753.25 179.96 746.61 186.58 740.58 C 193.58 733.91 200.10 726.74 207.47 720.46 C 218.00 709.66 229.13 699.47 239.73 688.73 C 249.33 680.35 257.67 670.65 267.33 662.33 C 277.94 651.60 288.97 641.31 299.55 630.55 C 307.90 623.60 315.04 615.37 323.04 608.03 C 330.03 601.36 336.46 594.08 343.93 587.91 C 354.93 576.91 366.12 566.11 377.10 555.10 C 385.84 547.87 393.20 539.19 401.64 531.63 C 407.87 525.87 413.46 519.42 419.95 513.91 C 427.68 506.66 434.76 498.72 442.80 491.80 Z"
     id="path44" />
  <path
     fill="#030368"
     d=" M 439.66 646.43 C 447.57 642.93 453.20 634.81 462.13 633.50 C 467.92 632.51 473.02 636.25 476.93 640.06 C 479.98 643.40 482.57 648.95 487.91 648.45 C 493.45 646.49 496.62 640.54 502.47 639.27 C 502.67 642.72 502.69 646.30 501.45 649.59 C 499.24 655.47 493.89 659.27 490.49 664.30 C 489.93 680.19 490.42 696.13 490.24 712.04 C 489.96 716.54 491.58 720.80 493.03 724.98 C 496.30 733.60 499.32 742.32 502.22 751.06 C 504.80 765.55 507.06 780.57 503.90 795.17 C 502.63 802.96 499.35 810.19 496.68 817.56 C 493.69 825.06 492.16 833.03 489.82 840.74 C 486.07 854.64 482.67 868.68 480.67 882.95 C 480.68 898.93 480.42 914.93 480.80 930.89 C 482.87 933.74 486.23 936.01 489.90 935.70 C 495.31 935.45 500.88 936.28 506.21 935.24 C 509.20 931.86 510.01 926.87 513.89 924.23 C 515.69 928.11 516.70 932.40 519.05 936.01 C 522.87 938.75 527.31 940.50 531.40 942.80 C 531.48 943.26 531.64 944.19 531.71 944.65 C 527.76 947.09 523.46 948.98 519.66 951.67 C 517.50 954.53 516.23 957.94 514.50 961.06 C 510.56 959.41 510.39 954.07 506.87 951.87 C 500.27 951.42 493.63 951.83 487.01 951.68 C 484.18 951.79 481.15 951.21 478.53 952.56 C 476.65 954.52 475.20 957.17 475.33 959.97 C 475.32 964.95 475.21 969.94 475.40 974.93 C 475.38 978.94 481.93 979.63 481.59 983.56 C 479.49 985.20 476.92 986.15 474.98 987.99 C 473.16 989.94 471.85 992.29 470.42 994.52 C 469.92 994.56 468.91 994.63 468.41 994.67 C 466.21 992.22 464.63 989.12 461.78 987.33 C 459.95 986.07 457.93 985.08 456.28 983.58 C 456.04 980.10 460.47 978.49 462.41 976.02 C 462.45 970.01 462.70 963.98 462.33 957.99 C 461.09 955.34 459.36 952.00 456.07 951.76 C 450.04 951.55 444.01 951.78 437.98 951.67 C 435.58 951.78 432.87 951.19 430.84 952.83 C 428.88 955.75 427.74 959.13 425.98 962.18 C 423.22 959.24 422.15 955.28 419.96 951.99 C 416.05 948.41 410.60 946.96 406.95 943.03 C 410.86 940.40 415.43 938.94 419.30 936.26 C 422.11 933.13 423.30 928.91 425.34 925.28 C 425.87 925.32 426.92 925.38 427.44 925.41 C 428.49 928.38 429.30 931.48 430.89 934.23 C 433.04 936.23 436.34 935.05 439.01 935.38 C 443.80 934.97 449.30 936.64 453.39 933.37 C 455.07 932.07 457.19 930.52 456.75 928.10 C 456.78 913.40 456.75 898.69 456.76 883.99 C 456.89 879.15 455.30 874.53 454.44 869.83 C 450.00 849.01 444.13 828.51 436.83 808.51 C 433.95 800.95 432.46 792.96 431.44 784.97 C 430.93 776.28 431.54 767.54 432.85 758.95 C 435.54 743.34 444.98 729.99 449.18 714.86 C 449.61 705.59 449.20 696.29 449.36 687.01 C 449.28 683.78 449.95 680.02 447.47 677.46 C 443.29 672.82 437.23 670.64 431.72 668.03 C 425.82 665.75 420.26 662.63 415.38 658.60 C 415.39 658.11 415.40 657.13 415.41 656.64 C 423.26 652.69 431.32 649.20 439.66 646.43 Z"
     id="path52" />
  <path
     fill="#fdfdfe"
     d=" M 456.54 648.68 C 458.96 648.24 462.28 647.66 463.94 650.00 C 466.50 653.09 466.25 658.69 462.24 660.46 C 459.09 661.22 454.87 660.87 453.40 657.49 C 451.40 654.33 453.66 650.37 456.54 648.68 Z"
     id="path54" />
  <path
     fill="#030368"
     d=" M 310.67 668.84 C 318.04 664.54 326.55 662.75 334.98 662.13 C 341.29 661.05 347.67 661.86 353.98 662.36 C 366.73 662.17 378.86 667.63 389.05 674.93 C 398.35 681.68 406.13 690.56 411.30 700.86 C 415.94 710.19 420.19 720.09 420.64 730.65 C 406.81 723.64 391.50 720.78 376.71 716.58 C 354.66 711.49 333.84 701.69 315.27 688.83 C 319.18 696.47 324.57 703.33 330.50 709.52 C 333.95 713.29 338.47 715.76 343.14 717.68 C 365.26 729.30 390.21 733.48 413.22 742.86 C 414.87 750.13 414.97 757.63 414.49 765.04 C 413.49 773.27 409.82 780.78 406.39 788.23 C 404.54 792.05 403.48 796.32 400.63 799.58 C 400.54 788.30 403.08 776.89 400.62 765.67 C 399.83 759.34 397.08 753.52 393.60 748.25 C 392.66 748.33 391.72 748.39 390.79 748.44 C 391.06 759.69 390.21 770.93 388.06 781.98 C 386.09 797.46 379.42 811.78 372.78 825.72 C 371.62 827.98 370.82 830.63 368.57 832.08 C 368.13 825.17 369.45 818.34 369.64 811.45 C 371.29 799.04 370.92 786.47 370.58 773.99 C 369.08 762.45 365.17 751.18 358.74 741.44 C 358.23 741.38 357.21 741.26 356.70 741.20 C 356.34 754.47 356.25 767.74 356.35 781.02 C 355.77 793.18 354.11 805.39 350.30 817.00 C 347.37 825.62 343.25 833.77 339.08 841.85 C 337.96 843.13 336.75 844.35 335.56 845.58 C 337.22 827.40 340.45 809.33 340.68 791.04 C 340.94 778.46 339.21 765.62 334.08 754.04 C 331.50 748.56 330.12 742.31 325.98 737.71 C 325.52 743.60 326.84 749.47 326.64 755.39 C 328.20 764.48 326.41 773.60 326.41 782.72 C 325.36 793.90 324.50 805.11 322.54 816.18 C 320.72 827.04 317.39 837.56 314.17 848.07 C 311.68 856.57 307.16 864.23 303.32 872.16 C 301.75 875.14 300.37 878.47 297.42 880.38 C 297.48 873.52 299.13 866.80 299.71 859.98 C 301.66 847.38 302.19 834.65 303.35 821.98 C 303.70 814.31 303.46 806.62 304.40 799.00 C 304.70 780.04 304.78 760.96 301.54 742.22 C 301.39 740.47 300.33 738.96 298.88 738.03 C 294.13 734.76 288.53 733.05 283.00 731.66 C 278.37 730.92 273.66 731.40 269.00 731.25 C 269.39 730.26 269.25 728.92 270.19 728.26 C 273.37 725.68 276.87 723.54 280.40 721.50 C 284.79 718.82 290.02 718.28 294.68 716.26 C 292.14 706.73 291.71 696.47 294.73 687.01 C 296.99 678.90 303.80 673.14 310.67 668.84 Z"
     id="path56" />
  <path
     fill="#030368"
     d=" M 575.98 662.73 C 584.95 662.46 593.94 660.67 602.88 662.30 C 614.47 662.98 626.23 667.11 634.53 675.47 C 642.21 682.24 644.07 693.25 643.64 703.00 C 643.97 707.55 642.52 711.90 642.04 716.38 C 646.77 718.22 651.93 718.98 656.34 721.63 C 660.57 724.11 664.91 726.61 668.26 730.26 C 663.35 732.24 657.97 730.53 652.93 731.79 C 648.42 733.00 643.86 734.32 639.79 736.66 C 637.67 737.98 635.26 739.55 634.99 742.27 C 632.77 755.04 632.07 768.04 632.28 781.00 C 632.03 803.68 633.22 826.32 635.44 848.88 C 636.40 859.78 638.56 870.56 639.39 881.46 C 633.70 875.52 630.80 867.60 627.48 860.23 C 621.43 847.14 617.62 833.15 614.51 819.11 C 612.03 805.89 610.82 792.46 610.07 779.05 C 609.18 771.73 609.51 764.34 609.56 757.00 C 610.04 750.58 610.96 744.16 610.42 737.72 C 609.30 738.61 608.47 739.72 607.93 741.04 C 602.64 752.79 598.24 765.10 596.73 777.97 C 595.16 796.69 598.07 815.33 600.24 833.88 C 600.74 839.01 601.97 844.11 601.53 849.30 C 592.76 834.13 584.90 817.95 582.26 800.46 C 579.02 784.49 581.00 768.14 580.18 752.00 C 579.51 747.97 579.81 743.88 579.27 739.84 C 575.17 744.58 572.71 750.45 570.24 756.14 C 567.56 764.83 565.02 773.81 565.46 783.00 C 565.62 789.63 565.03 796.33 566.08 802.91 C 567.02 812.22 567.68 821.59 568.15 830.90 C 567.90 831.39 567.41 832.36 567.17 832.85 C 560.37 819.35 553.92 805.53 550.02 790.88 C 547.25 776.75 545.24 762.43 545.41 748.01 C 544.12 748.39 542.49 748.37 541.86 749.80 C 536.03 757.95 535.36 768.33 534.60 777.98 C 535.26 785.97 535.77 793.98 536.37 801.97 C 533.02 795.10 529.89 788.13 526.91 781.09 C 522.36 771.48 520.31 760.46 522.27 749.94 C 522.73 747.28 522.01 743.24 525.24 742.14 C 543.24 734.93 562.34 730.93 580.31 723.64 C 586.12 721.62 591.43 718.49 597.03 716.01 C 602.79 713.50 606.91 708.54 610.95 703.92 C 614.59 699.18 618.60 694.58 620.96 689.02 C 605.59 699.76 588.58 708.02 570.73 713.75 C 552.45 718.91 533.56 722.39 516.18 730.35 C 516.26 723.36 518.09 716.49 520.97 710.16 C 525.41 699.67 530.87 689.17 539.57 681.56 C 549.58 672.05 562.22 664.83 575.98 662.73 Z"
     id="path58" />
  <path
     fill="#8484b5"
     d=" M 334.08 754.04 C 339.21 765.62 340.94 778.46 340.68 791.04 C 340.45 809.33 337.22 827.40 335.56 845.58 C 336.75 844.35 337.96 843.13 339.08 841.85 C 338.33 845.02 337.03 848.15 334.42 850.24 C 334.09 842.57 335.96 835.04 336.58 827.43 C 338.53 810.17 341.25 792.69 338.87 775.34 C 337.98 768.08 335.34 761.21 334.08 754.04 Z"
     id="path60" />
  <path
     fill="#030368"
     d=" M 410.33 828.41 C 411.69 827.59 413.15 825.99 414.89 826.78 C 421.53 829.09 427.51 833.88 430.60 840.27 C 432.21 844.60 434.17 849.12 433.58 853.86 C 431.67 865.43 424.93 875.60 416.68 883.69 C 413.14 886.57 408.80 889.76 403.97 888.39 C 394.59 885.91 385.23 883.37 375.86 880.87 C 373.31 879.95 370.95 881.73 368.79 882.83 C 363.33 886.20 358.24 890.17 353.49 894.48 C 351.72 895.68 352.01 898.33 353.23 899.83 C 356.31 904.22 361.00 906.98 365.56 909.61 C 366.67 910.01 366.60 911.22 366.80 912.20 C 360.53 913.12 354.36 914.76 348.07 915.39 C 341.74 914.48 336.04 911.28 329.96 909.58 C 324.24 910.81 318.77 913.23 312.88 913.60 C 315.73 909.23 320.41 906.63 324.12 903.09 C 333.64 895.35 342.79 887.08 350.62 877.60 C 354.57 873.76 358.91 870.22 363.84 867.71 C 371.27 863.85 377.48 858.14 383.87 852.84 C 392.75 844.76 400.35 835.22 410.33 828.41 Z"
     id="path62" />
  <path
     fill="#030368"
     d=" M 510.62 833.56 C 513.97 830.01 518.64 828.18 523.04 826.34 C 537.10 834.80 546.68 848.52 559.48 858.51 C 564.24 862.58 569.43 866.13 575.02 868.98 C 585.76 874.97 592.12 885.90 601.41 893.60 C 605.17 897.16 609.19 900.42 613.22 903.69 C 617.00 906.77 621.28 909.44 624.04 913.58 C 617.81 913.50 612.12 910.48 606.04 909.63 C 601.01 911.23 596.29 913.87 591.03 914.70 C 585.29 915.35 579.61 913.95 573.99 913.00 C 572.17 912.70 570.48 912.00 568.90 911.12 C 574.55 907.40 581.04 904.11 584.33 897.87 C 584.37 897.42 584.45 896.52 584.49 896.06 C 580.89 891.11 575.50 887.81 570.46 884.49 C 567.27 882.83 563.98 879.62 560.15 880.99 C 551.10 883.46 542.03 885.84 532.98 888.29 C 527.89 889.90 523.25 886.49 519.49 883.49 C 511.12 874.86 504.09 864.17 502.65 852.00 C 503.38 845.24 506.25 838.75 510.62 833.56 Z"
     id="path64" />
</svg>
